<svg xmlns="http://www.w3.org/2000/svg" width="24" height="21" viewBox="0 0 24 21" fill="none" style="transform: rotate(45deg);"><path d="M14.875 6.37515H2.40656L7.18094 1.82765C7.43094 1.58953 7.44063 1.1939 7.2025 0.943902C6.96469 0.694215 6.56906 0.684215 6.31875 0.92234L0.86625 6.11609C0.630312 6.35234 0.5 6.66609 0.5 7.00015C0.5 7.3339 0.630312 7.64796 0.877187 7.89453L6.31906 13.0777C6.44 13.193 6.595 13.2502 6.75 13.2502C6.915 13.2502 7.08 13.1852 7.20281 13.0561C7.44094 12.8061 7.43125 12.4108 7.18125 12.1727L2.38688 7.62515H14.875C15.22 7.62515 15.5 7.34515 15.5 7.00015C15.5 6.65515 15.22 6.37515 14.875 6.37515Z" fill="#3E3F43"></path></svg>